<?xml version="1.0" encoding="utf-8" standalone="no"?>
<!DOCTYPE svg PUBLIC "-//W3C//DTD SVG 1.1//EN"
  "http://www.w3.org/Graphics/SVG/1.1/DTD/svg11.dtd">
<!-- Created with matplotlib (http://matplotlib.org/) -->
<svg height="432pt" version="1.1" viewBox="0 0 576 432" width="576pt" xmlns="http://www.w3.org/2000/svg" xmlns:xlink="http://www.w3.org/1999/xlink">
 <defs>
  <style type="text/css">
*{stroke-linecap:butt;stroke-linejoin:round;}
  </style>
 </defs>
 <g id="figure_1">
  <g id="patch_1">
   <path d="
M0 432
L576 432
L576 0
L0 0
z
" style="fill:#ffffff;"/>
  </g>
  <g id="axes_1">
   <g id="patch_2">
    <path d="
M72 388.8
L518.4 388.8
L518.4 43.2
L72 43.2
z
" style="fill:#ffffff;"/>
   </g>
   <g id="line2d_1">
    <path clip-path="url(#p7ff5b81e1d)" d="
M72 388.8
L86.88 328.799
L101.76 279.493
L116.64 238.976
L131.52 205.681
L146.4 178.321
L161.28 155.838
L176.16 137.362
L191.04 122.18
L205.92 109.704
L220.8 99.4522
L235.68 90.9955
L250.56 84.0462
L265.44 78.3357
L280.32 73.643
L295.2 69.7868
L310.08 66.618
L324.96 64.0141
L339.84 61.8743
L354.72 60.1159
L369.6 58.6709
L384.48 57.2544
L399.36 56.0905
L414.24 55.1339
L429.12 54.3479
L444 53.702
L458.88 53.1713
L473.76 52.7351
L488.64 52.3767
L503.52 52.0822
L518.4 51.8401" style="fill:none;opacity:0.7;stroke:#0000ff;stroke-linecap:square;"/>
   </g>
   <g id="line2d_2">
    <path clip-path="url(#p7ff5b81e1d)" d="
M72 388.8
L86.88 328.784
L101.76 279.466
L116.64 238.939
L131.52 205.637
L146.4 178.27
L161.28 155.781
L176.16 137.301
L191.04 122.116
L205.92 109.637
L220.8 99.3821
L235.68 90.9535
L250.56 84.0273
L265.44 78.3356
L280.32 73.6586
L295.2 69.8152
L310.08 66.6569
L324.96 64.0616
L339.84 61.9288
L354.72 60.1763
L369.6 58.7361
L384.48 57.3329
L399.36 56.1798
L414.24 55.2322
L429.12 54.4536
L444 53.8137
L458.88 53.2879
L473.76 52.8558
L488.64 52.5007
L503.52 52.209
L518.4 51.9692" style="fill:none;opacity:0.1;stroke:#000000;stroke-dasharray:6.000000,6.000000;stroke-dashoffset:0.0;"/>
   </g>
   <g id="line2d_3">
    <path clip-path="url(#p7ff5b81e1d)" d="
M72 388.8
L86.88 328.78
L101.76 279.458
L116.64 238.928
L131.52 205.622
L146.4 178.253
L161.28 155.763
L176.16 137.282
L191.04 122.095
L205.92 109.615
L220.8 99.3595
L235.68 90.9346
L250.56 84.0115
L265.44 78.3225
L280.32 73.6475
L295.2 69.8058
L310.08 66.649
L324.96 64.0548
L339.84 61.9231
L354.72 60.1713
L369.6 58.7318
L384.48 57.384
L399.36 56.2765
L414.24 55.3664
L429.12 54.6185
L444 54.0039
L458.88 53.4989
L473.76 53.0839
L488.64 52.7428
L503.52 52.4626
L518.4 52.2323" style="fill:none;opacity:0.1;stroke:#000000;stroke-dasharray:6.000000,6.000000;stroke-dashoffset:0.0;"/>
   </g>
   <g id="line2d_4">
    <path clip-path="url(#p7ff5b81e1d)" d="
M72 388.8
L86.88 328.799
L101.76 279.494
L116.64 238.977
L131.52 205.683
L146.4 178.323
L161.28 155.84
L176.16 137.365
L191.04 122.183
L205.92 109.707
L220.8 99.4552
L235.68 91.0491
L250.56 84.1414
L265.44 78.465
L280.32 73.8004
L295.2 69.9673
L310.08 66.8174
L324.96 64.229
L339.84 62.102
L354.72 60.3541
L369.6 58.9178
L384.48 57.5292
L399.36 56.3881
L414.24 55.4504
L429.12 54.6798
L444 54.0466
L458.88 53.5263
L473.76 53.0987
L488.64 52.7473
L503.52 52.4586
L518.4 52.2213" style="fill:none;opacity:0.1;stroke:#000000;stroke-dasharray:6.000000,6.000000;stroke-dashoffset:0.0;"/>
   </g>
   <g id="line2d_5">
    <path clip-path="url(#p7ff5b81e1d)" d="
M72 388.8
L86.88 328.818
L101.76 279.527
L116.64 239.023
L131.52 205.739
L146.4 178.387
L161.28 155.911
L176.16 137.442
L191.04 122.264
L205.92 109.792
L220.8 99.5434
L235.68 91.095
L250.56 84.1526
L265.44 78.4477
L280.32 73.7596
L295.2 69.9073
L310.08 66.7416
L324.96 64.1402
L339.84 62.0025
L354.72 60.2458
L369.6 58.8023
L384.48 57.5026
L399.36 56.4345
L414.24 55.5569
L429.12 54.8356
L444 54.243
L458.88 53.7559
L473.76 53.3557
L488.64 53.0269
L503.52 52.7566
L518.4 52.5345" style="fill:none;opacity:0.1;stroke:#000000;stroke-dasharray:6.000000,6.000000;stroke-dashoffset:0.0;"/>
   </g>
   <g id="line2d_6">
    <path clip-path="url(#p7ff5b81e1d)" d="
M72 388.8
L86.88 328.793
L101.76 279.483
L116.64 238.962
L131.52 205.664
L146.4 178.301
L161.28 155.816
L176.16 137.339
L191.04 122.156
L205.92 109.678
L220.8 99.4254
L235.68 90.9669
L250.56 84.0161
L265.44 78.3043
L280.32 73.6106
L295.2 69.7536
L310.08 66.5841
L324.96 63.9796
L339.84 61.8393
L354.72 60.0805
L369.6 58.6353
L384.48 57.3819
L399.36 56.3519
L414.24 55.5055
L429.12 54.81
L444 54.2384
L458.88 53.7687
L473.76 53.3828
L488.64 53.0656
L503.52 52.805
L518.4 52.5909" style="fill:none;opacity:0.1;stroke:#000000;stroke-dasharray:6.000000,6.000000;stroke-dashoffset:0.0;"/>
   </g>
   <g id="line2d_7">
    <path clip-path="url(#p7ff5b81e1d)" d="
M72 388.8
L86.88 328.802
L101.76 279.499
L116.64 238.984
L131.52 205.692
L146.4 178.333
L161.28 155.851
L176.16 137.377
L191.04 122.196
L205.92 109.721
L220.8 99.4691
L235.68 90.983
L250.56 84.0095
L265.44 78.2791
L280.32 73.5701
L295.2 69.7005
L310.08 66.5206
L324.96 63.9076
L339.84 61.7604
L354.72 59.9959
L369.6 58.5459
L384.48 57.3825
L399.36 56.4265
L414.24 55.6409
L429.12 54.9954
L444 54.4649
L458.88 54.0289
L473.76 53.6707
L488.64 53.3763
L503.52 53.1344
L518.4 52.9357" style="fill:none;opacity:0.1;stroke:#000000;stroke-dasharray:6.000000,6.000000;stroke-dashoffset:0.0;"/>
   </g>
   <g id="line2d_8">
    <path clip-path="url(#p7ff5b81e1d)" d="
M72 388.8
L86.88 328.832
L101.76 279.553
L116.64 239.058
L131.52 205.781
L146.4 178.436
L161.28 155.966
L176.16 137.5
L191.04 122.327
L205.92 109.857
L220.8 99.611
L235.68 91.1375
L250.56 84.1743
L265.44 78.4524
L280.32 73.7504
L295.2 69.8865
L310.08 66.7114
L324.96 64.1023
L339.84 61.9582
L354.72 60.1963
L369.6 58.7485
L384.48 57.5256
L399.36 56.5207
L414.24 55.6949
L429.12 55.0163
L444 54.4587
L458.88 54.0005
L473.76 53.6239
L488.64 53.3145
L503.52 53.0602
L518.4 52.8513" style="fill:none;opacity:0.1;stroke:#000000;stroke-dasharray:6.000000,6.000000;stroke-dashoffset:0.0;"/>
   </g>
   <g id="line2d_9">
    <path clip-path="url(#p7ff5b81e1d)" d="
M72 388.8
L86.88 328.756
L101.76 279.414
L116.64 238.868
L131.52 205.549
L146.4 178.169
L161.28 155.67
L176.16 137.181
L191.04 121.988
L205.92 109.503
L220.8 99.2436
L235.68 90.8507
L250.56 83.9539
L265.44 78.2864
L280.32 73.6291
L295.2 69.8021
L310.08 66.6572
L324.96 64.0728
L339.84 61.9492
L354.72 60.2041
L369.6 58.77
L384.48 57.5596
L399.36 56.565
L414.24 55.7476
L429.12 55.076
L444 54.524
L458.88 54.0705
L473.76 53.6978
L488.64 53.3915
L503.52 53.1398
L518.4 52.933" style="fill:none;opacity:0.1;stroke:#000000;stroke-dasharray:6.000000,6.000000;stroke-dashoffset:0.0;"/>
   </g>
   <g id="line2d_10">
    <path clip-path="url(#p7ff5b81e1d)" d="
M72 388.8
L86.88 328.745
L101.76 279.394
L116.64 238.84
L131.52 205.515
L146.4 178.131
L161.28 155.627
L176.16 137.135
L191.04 121.939
L205.92 109.452
L220.8 99.1907
L235.68 90.811
L250.56 83.925
L265.44 78.2664
L280.32 73.6165
L295.2 69.7954
L310.08 66.6555
L324.96 64.0752
L339.84 61.9549
L354.72 60.2125
L369.6 58.7807
L384.48 57.5387
L399.36 56.5181
L414.24 55.6794
L429.12 54.9902
L444 54.4238
L458.88 53.9584
L473.76 53.576
L488.64 53.2617
L503.52 53.0035
L518.4 52.7912" style="fill:none;opacity:0.1;stroke:#000000;stroke-dasharray:6.000000,6.000000;stroke-dashoffset:0.0;"/>
   </g>
   <g id="line2d_11">
    <path clip-path="url(#p7ff5b81e1d)" d="
M72 388.8
L86.88 328.782
L101.76 279.461
L116.64 238.933
L131.52 205.628
L146.4 178.26
L161.28 155.771
L176.16 137.29
L191.04 122.104
L205.92 109.624
L220.8 99.369
L235.68 90.9699
L250.56 84.0679
L265.44 78.3962
L280.32 73.7355
L295.2 69.9055
L310.08 66.7583
L324.96 64.1721
L339.84 62.0468
L354.72 60.3004
L369.6 58.8653
L384.48 57.6469
L399.36 56.6456
L414.24 55.8228
L429.12 55.1467
L444 54.5911
L458.88 54.1346
L473.76 53.7594
L488.64 53.4511
L503.52 53.1977
L518.4 52.9895" style="fill:none;opacity:0.1;stroke:#000000;stroke-dasharray:6.000000,6.000000;stroke-dashoffset:0.0;"/>
   </g>
   <g id="line2d_12">
    <path clip-path="url(#p7ff5b81e1d)" d="
M72 388.8
L86.88 328.825
L101.76 279.541
L116.64 239.041
L131.52 205.761
L146.4 178.413
L161.28 155.94
L176.16 137.472
L191.04 122.297
L205.92 109.826
L220.8 99.5787
L235.68 91.0894
L250.56 84.1132
L265.44 78.3806
L280.32 73.6698
L295.2 69.7988
L310.08 66.6177
L324.96 64.0037
L339.84 61.8556
L354.72 60.0904
L369.6 58.6399
L384.48 57.471
L399.36 56.5105
L414.24 55.7212
L429.12 55.0725
L444 54.5395
L458.88 54.1015
L473.76 53.7416
L488.64 53.4459
L503.52 53.2028
L518.4 53.0031" style="fill:none;opacity:0.1;stroke:#000000;stroke-dasharray:6.000000,6.000000;stroke-dashoffset:0.0;"/>
   </g>
   <g id="line2d_13">
    <path clip-path="url(#p7ff5b81e1d)" d="
M72 388.8
L86.88 328.788
L101.76 279.474
L116.64 238.95
L131.52 205.649
L146.4 178.284
L161.28 155.797
L176.16 137.319
L191.04 122.134
L205.92 109.656
L220.8 99.4021
L235.68 90.9985
L250.56 84.0928
L265.44 78.4181
L280.32 73.755
L295.2 69.923
L310.08 66.7741
L324.96 64.1865
L339.84 62.0601
L354.72 60.3127
L369.6 58.8769
L384.48 57.6553
L399.36 56.6515
L414.24 55.8266
L429.12 55.1487
L444 54.5917
L458.88 54.134
L473.76 53.7578
L488.64 53.4487
L503.52 53.1947
L518.4 52.986" style="fill:none;opacity:0.1;stroke:#000000;stroke-dasharray:6.000000,6.000000;stroke-dashoffset:0.0;"/>
   </g>
   <g id="line2d_14">
    <path clip-path="url(#p7ff5b81e1d)" d="
M72 388.8
L86.88 328.759
L101.76 279.42
L116.64 238.876
L131.52 205.559
L146.4 178.18
L161.28 155.682
L176.16 137.194
L191.04 122.002
L205.92 109.518
L220.8 99.259
L235.68 90.9044
L250.56 84.039
L265.44 78.3973
L280.32 73.7613
L295.2 69.9517
L310.08 66.8211
L324.96 64.2486
L339.84 62.1346
L354.72 60.3974
L369.6 58.9699
L384.48 57.6965
L399.36 56.65
L414.24 55.7901
L429.12 55.0834
L444 54.5027
L458.88 54.0255
L473.76 53.6334
L488.64 53.3112
L503.52 53.0464
L518.4 52.8288" style="fill:none;opacity:0.1;stroke:#000000;stroke-dasharray:6.000000,6.000000;stroke-dashoffset:0.0;"/>
   </g>
   <g id="line2d_15">
    <path clip-path="url(#p7ff5b81e1d)" d="
M72 388.8
L86.88 328.821
L101.76 279.534
L116.64 239.032
L131.52 205.75
L146.4 178.4
L161.28 155.926
L176.16 137.457
L191.04 122.281
L205.92 109.809
L220.8 99.5612
L235.68 91.0982
L250.56 84.1437
L265.44 78.4289
L280.32 73.7327
L295.2 69.8737
L310.08 66.7025
L324.96 64.0966
L339.84 61.9552
L354.72 60.1955
L369.6 58.7494
L384.48 57.5321
L399.36 56.5317
L414.24 55.7097
L429.12 55.0342
L444 54.4791
L458.88 54.0229
L473.76 53.6481
L488.64 53.3401
L503.52 53.087
L518.4 52.879" style="fill:none;opacity:0.1;stroke:#000000;stroke-dasharray:6.000000,6.000000;stroke-dashoffset:0.0;"/>
   </g>
   <g id="line2d_16">
    <path clip-path="url(#p7ff5b81e1d)" d="
M72 388.8
L86.88 328.758
L101.76 279.418
L116.64 238.873
L131.52 205.555
L146.4 178.176
L161.28 155.678
L176.16 137.189
L191.04 121.997
L205.92 109.512
L220.8 99.2533
L235.68 90.8255
L250.56 83.8999
L265.44 78.2089
L280.32 73.5323
L295.2 69.6893
L310.08 66.5313
L324.96 63.9362
L339.84 61.8037
L354.72 60.0514
L369.6 58.6113
L384.48 57.4714
L399.36 56.5346
L414.24 55.7648
L429.12 55.1322
L444 54.6124
L458.88 54.1852
L473.76 53.8342
L488.64 53.5458
L503.52 53.3087
L518.4 53.114" style="fill:none;opacity:0.1;stroke:#000000;stroke-dasharray:6.000000,6.000000;stroke-dashoffset:0.0;"/>
   </g>
   <g id="line2d_17">
    <path clip-path="url(#p7ff5b81e1d)" d="
M72 388.8
L86.88 328.812
L101.76 279.517
L116.64 239.009
L131.52 205.721
L146.4 178.367
L161.28 155.889
L176.16 137.418
L191.04 122.239
L205.92 109.766
L220.8 99.5162
L235.68 91.1151
L250.56 84.2115
L265.44 78.5385
L280.32 73.8767
L295.2 70.0458
L310.08 66.8979
L324.96 64.311
L339.84 62.1853
L354.72 60.4385
L369.6 59.003
L384.48 57.7361
L399.36 56.695
L414.24 55.8395
L429.12 55.1364
L444 54.5587
L458.88 54.084
L473.76 53.6939
L488.64 53.3733
L503.52 53.1099
L518.4 52.8934" style="fill:none;opacity:0.1;stroke:#000000;stroke-dasharray:6.000000,6.000000;stroke-dashoffset:0.0;"/>
   </g>
   <g id="line2d_18">
    <path clip-path="url(#p7ff5b81e1d)" d="
M72 388.8
L86.88 328.876
L101.76 279.634
L116.64 239.17
L131.52 205.918
L146.4 178.593
L161.28 156.139
L176.16 137.688
L191.04 122.525
L205.92 110.066
L220.8 99.8267
L235.68 91.3078
L250.56 84.3074
L265.44 78.5548
L280.32 73.8277
L295.2 69.9431
L310.08 66.751
L324.96 64.1279
L339.84 61.9723
L354.72 60.201
L369.6 58.7454
L384.48 57.5942
L399.36 56.6482
L414.24 55.8709
L429.12 55.2321
L444 54.7071
L458.88 54.2758
L473.76 53.9213
L488.64 53.63
L503.52 53.3906
L518.4 53.1939" style="fill:none;opacity:0.1;stroke:#000000;stroke-dasharray:6.000000,6.000000;stroke-dashoffset:0.0;"/>
   </g>
   <g id="line2d_19">
    <path clip-path="url(#p7ff5b81e1d)" d="
M72 388.8
L86.88 328.802
L101.76 279.499
L116.64 238.985
L131.52 205.692
L146.4 178.333
L161.28 155.851
L176.16 137.377
L191.04 122.196
L205.92 109.721
L220.8 99.4692
L235.68 91.0616
L250.56 84.1526
L265.44 78.4752
L280.32 73.8097
L295.2 69.9759
L310.08 66.8255
L324.96 64.2367
L339.84 62.1093
L354.72 60.3611
L369.6 58.9245
L384.48 57.7212
L399.36 56.7323
L414.24 55.9197
L429.12 55.252
L444 54.7032
L458.88 54.2523
L473.76 53.8818
L488.64 53.5773
L503.52 53.3271
L518.4 53.1215" style="fill:none;opacity:0.1;stroke:#000000;stroke-dasharray:6.000000,6.000000;stroke-dashoffset:0.0;"/>
   </g>
   <g id="line2d_20">
    <path clip-path="url(#p7ff5b81e1d)" d="
M72 388.8
L86.88 328.798
L101.76 279.492
L116.64 238.975
L131.52 205.68
L146.4 178.32
L161.28 155.836
L176.16 137.361
L191.04 122.179
L205.92 109.703
L220.8 99.4505
L235.68 91.066
L250.56 84.1762
L265.44 78.5144
L280.32 73.8618
L295.2 70.0386
L310.08 66.8969
L324.96 64.3152
L339.84 62.1937
L354.72 60.4503
L369.6 59.0177
L384.48 57.7137
L399.36 56.6421
L414.24 55.7616
L429.12 55.038
L444 54.4434
L458.88 53.9547
L473.76 53.5532
L488.64 53.2233
L503.52 52.9521
L518.4 52.7293" style="fill:none;opacity:0.1;stroke:#000000;stroke-dasharray:6.000000,6.000000;stroke-dashoffset:0.0;"/>
   </g>
   <g id="line2d_21">
    <path clip-path="url(#p7ff5b81e1d)" d="
M72 388.8
L86.88 328.781
L101.76 279.461
L116.64 238.932
L131.52 205.627
L146.4 178.259
L161.28 155.769
L176.16 137.288
L191.04 122.102
L205.92 109.622
L220.8 99.3668
L235.68 90.9598
L250.56 84.0514
L265.44 78.3743
L280.32 73.7092
L295.2 69.8757
L310.08 66.7255
L324.96 64.1368
L339.84 62.0096
L354.72 60.2616
L369.6 58.8251
L384.48 57.5955
L399.36 56.5851
L414.24 55.7549
L429.12 55.0726
L444 54.5119
L458.88 54.0512
L473.76 53.6726
L488.64 53.3614
L503.52 53.1058
L518.4 52.8957" style="fill:none;opacity:0.1;stroke:#000000;stroke-dasharray:6.000000,6.000000;stroke-dashoffset:0.0;"/>
   </g>
   <g id="line2d_22">
    <path clip-path="url(#p7ff5b81e1d)" d="
M220.8 492.48
M220.8 433
L220.8 -1" style="fill:none;opacity:0.1;stroke:#000000;stroke-linecap:square;"/>
   </g>
   <g id="line2d_23">
    <path clip-path="url(#p7ff5b81e1d)" d="
M369.6 492.48
M369.6 433
L369.6 -1" style="fill:none;opacity:0.1;stroke:#000000;stroke-linecap:square;"/>
   </g>
   <g id="patch_3">
    <path d="
M72 43.2
L518.4 43.2" style="fill:none;stroke:#000000;stroke-linecap:square;stroke-linejoin:miter;"/>
   </g>
   <g id="patch_4">
    <path d="
M518.4 388.8
L518.4 43.2" style="fill:none;stroke:#000000;stroke-linecap:square;stroke-linejoin:miter;"/>
   </g>
   <g id="patch_5">
    <path d="
M72 388.8
L518.4 388.8" style="fill:none;stroke:#000000;stroke-linecap:square;stroke-linejoin:miter;"/>
   </g>
   <g id="patch_6">
    <path d="
M72 388.8
L72 43.2" style="fill:none;stroke:#000000;stroke-linecap:square;stroke-linejoin:miter;"/>
   </g>
   <g id="matplotlib.axis_1">
    <g id="xtick_1">
     <g id="line2d_24">
      <defs>
       <path d="
M0 0
L0 -4" id="m93b0483c22" style="stroke:#000000;stroke-width:0.5;"/>
      </defs>
      <g>
       <use style="stroke:#000000;stroke-width:0.5;" x="72.0" xlink:href="#m93b0483c22" y="388.8"/>
      </g>
     </g>
     <g id="line2d_25">
      <defs>
       <path d="
M0 0
L0 4" id="m741efc42ff" style="stroke:#000000;stroke-width:0.5;"/>
      </defs>
      <g>
       <use style="stroke:#000000;stroke-width:0.5;" x="72.0" xlink:href="#m741efc42ff" y="43.2"/>
      </g>
     </g>
     <g id="text_1">
      <!-- 0 -->
      <defs>
       <path d="
M31.7812 66.4062
Q24.1719 66.4062 20.3281 58.9062
Q16.5 51.4219 16.5 36.375
Q16.5 21.3906 20.3281 13.8906
Q24.1719 6.39062 31.7812 6.39062
Q39.4531 6.39062 43.2812 13.8906
Q47.125 21.3906 47.125 36.375
Q47.125 51.4219 43.2812 58.9062
Q39.4531 66.4062 31.7812 66.4062
M31.7812 74.2188
Q44.0469 74.2188 50.5156 64.5156
Q56.9844 54.8281 56.9844 36.375
Q56.9844 17.9688 50.5156 8.26562
Q44.0469 -1.42188 31.7812 -1.42188
Q19.5312 -1.42188 13.0625 8.26562
Q6.59375 17.9688 6.59375 36.375
Q6.59375 54.8281 13.0625 64.5156
Q19.5312 74.2188 31.7812 74.2188" id="BitstreamVeraSans-Roman-30"/>
      </defs>
      <g transform="translate(68.9765625 401.918125)scale(0.12 -0.12)">
       <use xlink:href="#BitstreamVeraSans-Roman-30"/>
      </g>
     </g>
    </g>
    <g id="xtick_2">
     <g id="line2d_26">
      <g>
       <use style="stroke:#000000;stroke-width:0.5;" x="146.4" xlink:href="#m93b0483c22" y="388.8"/>
      </g>
     </g>
     <g id="line2d_27">
      <g>
       <use style="stroke:#000000;stroke-width:0.5;" x="146.4" xlink:href="#m741efc42ff" y="43.2"/>
      </g>
     </g>
     <g id="text_2">
      <!-- 5 -->
      <defs>
       <path d="
M10.7969 72.9062
L49.5156 72.9062
L49.5156 64.5938
L19.8281 64.5938
L19.8281 46.7344
Q21.9688 47.4688 24.1094 47.8281
Q26.2656 48.1875 28.4219 48.1875
Q40.625 48.1875 47.75 41.5
Q54.8906 34.8125 54.8906 23.3906
Q54.8906 11.625 47.5625 5.09375
Q40.2344 -1.42188 26.9062 -1.42188
Q22.3125 -1.42188 17.5469 -0.640625
Q12.7969 0.140625 7.71875 1.70312
L7.71875 11.625
Q12.1094 9.23438 16.7969 8.0625
Q21.4844 6.89062 26.7031 6.89062
Q35.1562 6.89062 40.0781 11.3281
Q45.0156 15.7656 45.0156 23.3906
Q45.0156 31 40.0781 35.4375
Q35.1562 39.8906 26.7031 39.8906
Q22.75 39.8906 18.8125 39.0156
Q14.8906 38.1406 10.7969 36.2812
z
" id="BitstreamVeraSans-Roman-35"/>
      </defs>
      <g transform="translate(143.5696875 401.918125)scale(0.12 -0.12)">
       <use xlink:href="#BitstreamVeraSans-Roman-35"/>
      </g>
     </g>
    </g>
    <g id="xtick_3">
     <g id="line2d_28">
      <g>
       <use style="stroke:#000000;stroke-width:0.5;" x="220.8" xlink:href="#m93b0483c22" y="388.8"/>
      </g>
     </g>
     <g id="line2d_29">
      <g>
       <use style="stroke:#000000;stroke-width:0.5;" x="220.8" xlink:href="#m741efc42ff" y="43.2"/>
      </g>
     </g>
     <g id="text_3">
      <!-- 10 -->
      <defs>
       <path d="
M12.4062 8.29688
L28.5156 8.29688
L28.5156 63.9219
L10.9844 60.4062
L10.9844 69.3906
L28.4219 72.9062
L38.2812 72.9062
L38.2812 8.29688
L54.3906 8.29688
L54.3906 0
L12.4062 0
z
" id="BitstreamVeraSans-Roman-31"/>
      </defs>
      <g transform="translate(214.2225 401.918125)scale(0.12 -0.12)">
       <use xlink:href="#BitstreamVeraSans-Roman-31"/>
       <use x="63.623046875" xlink:href="#BitstreamVeraSans-Roman-30"/>
      </g>
     </g>
    </g>
    <g id="xtick_4">
     <g id="line2d_30">
      <g>
       <use style="stroke:#000000;stroke-width:0.5;" x="295.2" xlink:href="#m93b0483c22" y="388.8"/>
      </g>
     </g>
     <g id="line2d_31">
      <g>
       <use style="stroke:#000000;stroke-width:0.5;" x="295.2" xlink:href="#m741efc42ff" y="43.2"/>
      </g>
     </g>
     <g id="text_4">
      <!-- 15 -->
      <g transform="translate(288.748125 401.918125)scale(0.12 -0.12)">
       <use xlink:href="#BitstreamVeraSans-Roman-31"/>
       <use x="63.623046875" xlink:href="#BitstreamVeraSans-Roman-35"/>
      </g>
     </g>
    </g>
    <g id="xtick_5">
     <g id="line2d_32">
      <g>
       <use style="stroke:#000000;stroke-width:0.5;" x="369.6" xlink:href="#m93b0483c22" y="388.8"/>
      </g>
     </g>
     <g id="line2d_33">
      <g>
       <use style="stroke:#000000;stroke-width:0.5;" x="369.6" xlink:href="#m741efc42ff" y="43.2"/>
      </g>
     </g>
     <g id="text_5">
      <!-- 20 -->
      <defs>
       <path d="
M19.1875 8.29688
L53.6094 8.29688
L53.6094 0
L7.32812 0
L7.32812 8.29688
Q12.9375 14.1094 22.625 23.8906
Q32.3281 33.6875 34.8125 36.5312
Q39.5469 41.8438 41.4219 45.5312
Q43.3125 49.2188 43.3125 52.7812
Q43.3125 58.5938 39.2344 62.25
Q35.1562 65.9219 28.6094 65.9219
Q23.9688 65.9219 18.8125 64.3125
Q13.6719 62.7031 7.8125 59.4219
L7.8125 69.3906
Q13.7656 71.7812 18.9375 73
Q24.125 74.2188 28.4219 74.2188
Q39.75 74.2188 46.4844 68.5469
Q53.2188 62.8906 53.2188 53.4219
Q53.2188 48.9219 51.5312 44.8906
Q49.8594 40.875 45.4062 35.4062
Q44.1875 33.9844 37.6406 27.2188
Q31.1094 20.4531 19.1875 8.29688" id="BitstreamVeraSans-Roman-32"/>
      </defs>
      <g transform="translate(362.803125 401.918125)scale(0.12 -0.12)">
       <use xlink:href="#BitstreamVeraSans-Roman-32"/>
       <use x="63.623046875" xlink:href="#BitstreamVeraSans-Roman-30"/>
      </g>
     </g>
    </g>
    <g id="xtick_6">
     <g id="line2d_34">
      <g>
       <use style="stroke:#000000;stroke-width:0.5;" x="444.0" xlink:href="#m93b0483c22" y="388.8"/>
      </g>
     </g>
     <g id="line2d_35">
      <g>
       <use style="stroke:#000000;stroke-width:0.5;" x="444.0" xlink:href="#m741efc42ff" y="43.2"/>
      </g>
     </g>
     <g id="text_6">
      <!-- 25 -->
      <g transform="translate(437.32875 401.918125)scale(0.12 -0.12)">
       <use xlink:href="#BitstreamVeraSans-Roman-32"/>
       <use x="63.623046875" xlink:href="#BitstreamVeraSans-Roman-35"/>
      </g>
     </g>
    </g>
    <g id="xtick_7">
     <g id="line2d_36">
      <g>
       <use style="stroke:#000000;stroke-width:0.5;" x="518.4" xlink:href="#m93b0483c22" y="388.8"/>
      </g>
     </g>
     <g id="line2d_37">
      <g>
       <use style="stroke:#000000;stroke-width:0.5;" x="518.4" xlink:href="#m741efc42ff" y="43.2"/>
      </g>
     </g>
     <g id="text_7">
      <!-- 30 -->
      <defs>
       <path d="
M40.5781 39.3125
Q47.6562 37.7969 51.625 33
Q55.6094 28.2188 55.6094 21.1875
Q55.6094 10.4062 48.1875 4.48438
Q40.7656 -1.42188 27.0938 -1.42188
Q22.5156 -1.42188 17.6562 -0.515625
Q12.7969 0.390625 7.625 2.20312
L7.625 11.7188
Q11.7188 9.32812 16.5938 8.10938
Q21.4844 6.89062 26.8125 6.89062
Q36.0781 6.89062 40.9375 10.5469
Q45.7969 14.2031 45.7969 21.1875
Q45.7969 27.6406 41.2812 31.2656
Q36.7656 34.9062 28.7188 34.9062
L20.2188 34.9062
L20.2188 43.0156
L29.1094 43.0156
Q36.375 43.0156 40.2344 45.9219
Q44.0938 48.8281 44.0938 54.2969
Q44.0938 59.9062 40.1094 62.9062
Q36.1406 65.9219 28.7188 65.9219
Q24.6562 65.9219 20.0156 65.0312
Q15.375 64.1562 9.8125 62.3125
L9.8125 71.0938
Q15.4375 72.6562 20.3438 73.4375
Q25.25 74.2188 29.5938 74.2188
Q40.8281 74.2188 47.3594 69.1094
Q53.9062 64.0156 53.9062 55.3281
Q53.9062 49.2656 50.4375 45.0938
Q46.9688 40.9219 40.5781 39.3125" id="BitstreamVeraSans-Roman-33"/>
      </defs>
      <g transform="translate(511.6209375 401.918125)scale(0.12 -0.12)">
       <use xlink:href="#BitstreamVeraSans-Roman-33"/>
       <use x="63.623046875" xlink:href="#BitstreamVeraSans-Roman-30"/>
      </g>
     </g>
    </g>
    <g id="text_8">
     <!-- Time (min) -->
     <defs>
      <path id="BitstreamVeraSans-Roman-20"/>
      <path d="
M54.8906 33.0156
L54.8906 0
L45.9062 0
L45.9062 32.7188
Q45.9062 40.4844 42.875 44.3281
Q39.8438 48.1875 33.7969 48.1875
Q26.5156 48.1875 22.3125 43.5469
Q18.1094 38.9219 18.1094 30.9062
L18.1094 0
L9.07812 0
L9.07812 54.6875
L18.1094 54.6875
L18.1094 46.1875
Q21.3438 51.125 25.7031 53.5625
Q30.0781 56 35.7969 56
Q45.2188 56 50.0469 50.1719
Q54.8906 44.3438 54.8906 33.0156" id="BitstreamVeraSans-Roman-6e"/>
      <path d="
M31 75.875
Q24.4688 64.6562 21.2812 53.6562
Q18.1094 42.6719 18.1094 31.3906
Q18.1094 20.125 21.3125 9.0625
Q24.5156 -2 31 -13.1875
L23.1875 -13.1875
Q15.875 -1.70312 12.2344 9.375
Q8.59375 20.4531 8.59375 31.3906
Q8.59375 42.2812 12.2031 53.3125
Q15.8281 64.3594 23.1875 75.875
z
" id="BitstreamVeraSans-Roman-28"/>
      <path d="
M8.01562 75.875
L15.8281 75.875
Q23.1406 64.3594 26.7812 53.3125
Q30.4219 42.2812 30.4219 31.3906
Q30.4219 20.4531 26.7812 9.375
Q23.1406 -1.70312 15.8281 -13.1875
L8.01562 -13.1875
Q14.5 -2 17.7031 9.0625
Q20.9062 20.125 20.9062 31.3906
Q20.9062 42.6719 17.7031 53.6562
Q14.5 64.6562 8.01562 75.875" id="BitstreamVeraSans-Roman-29"/>
      <path d="
M9.42188 54.6875
L18.4062 54.6875
L18.4062 0
L9.42188 0
z

M9.42188 75.9844
L18.4062 75.9844
L18.4062 64.5938
L9.42188 64.5938
z
" id="BitstreamVeraSans-Roman-69"/>
      <path d="
M52 44.1875
Q55.375 50.25 60.0625 53.125
Q64.75 56 71.0938 56
Q79.6406 56 84.2812 50.0156
Q88.9219 44.0469 88.9219 33.0156
L88.9219 0
L79.8906 0
L79.8906 32.7188
Q79.8906 40.5781 77.0938 44.375
Q74.3125 48.1875 68.6094 48.1875
Q61.625 48.1875 57.5625 43.5469
Q53.5156 38.9219 53.5156 30.9062
L53.5156 0
L44.4844 0
L44.4844 32.7188
Q44.4844 40.625 41.7031 44.4062
Q38.9219 48.1875 33.1094 48.1875
Q26.2188 48.1875 22.1562 43.5312
Q18.1094 38.875 18.1094 30.9062
L18.1094 0
L9.07812 0
L9.07812 54.6875
L18.1094 54.6875
L18.1094 46.1875
Q21.1875 51.2188 25.4844 53.6094
Q29.7812 56 35.6875 56
Q41.6562 56 45.8281 52.9688
Q50 49.9531 52 44.1875" id="BitstreamVeraSans-Roman-6d"/>
      <path d="
M56.2031 29.5938
L56.2031 25.2031
L14.8906 25.2031
Q15.4844 15.9219 20.4844 11.0625
Q25.4844 6.20312 34.4219 6.20312
Q39.5938 6.20312 44.4531 7.46875
Q49.3125 8.73438 54.1094 11.2812
L54.1094 2.78125
Q49.2656 0.734375 44.1875 -0.34375
Q39.1094 -1.42188 33.8906 -1.42188
Q20.7969 -1.42188 13.1562 6.1875
Q5.51562 13.8125 5.51562 26.8125
Q5.51562 40.2344 12.7656 48.1094
Q20.0156 56 32.3281 56
Q43.3594 56 49.7812 48.8906
Q56.2031 41.7969 56.2031 29.5938
M47.2188 32.2344
Q47.125 39.5938 43.0938 43.9844
Q39.0625 48.3906 32.4219 48.3906
Q24.9062 48.3906 20.3906 44.1406
Q15.875 39.8906 15.1875 32.1719
z
" id="BitstreamVeraSans-Roman-65"/>
      <path d="
M-0.296875 72.9062
L61.375 72.9062
L61.375 64.5938
L35.5 64.5938
L35.5 0
L25.5938 0
L25.5938 64.5938
L-0.296875 64.5938
z
" id="BitstreamVeraSans-Roman-54"/>
     </defs>
     <g transform="translate(263.115 418.531875)scale(0.12 -0.12)">
      <use xlink:href="#BitstreamVeraSans-Roman-54"/>
      <use x="57.958984375" xlink:href="#BitstreamVeraSans-Roman-69"/>
      <use x="85.7421875" xlink:href="#BitstreamVeraSans-Roman-6d"/>
      <use x="183.154296875" xlink:href="#BitstreamVeraSans-Roman-65"/>
      <use x="244.677734375" xlink:href="#BitstreamVeraSans-Roman-20"/>
      <use x="276.46484375" xlink:href="#BitstreamVeraSans-Roman-28"/>
      <use x="315.478515625" xlink:href="#BitstreamVeraSans-Roman-6d"/>
      <use x="412.890625" xlink:href="#BitstreamVeraSans-Roman-69"/>
      <use x="440.673828125" xlink:href="#BitstreamVeraSans-Roman-6e"/>
      <use x="504.052734375" xlink:href="#BitstreamVeraSans-Roman-29"/>
     </g>
    </g>
   </g>
   <g id="matplotlib.axis_2">
    <g id="ytick_1">
     <g id="line2d_38">
      <defs>
       <path d="
M0 0
L4 0" id="m728421d6d4" style="stroke:#000000;stroke-width:0.5;"/>
      </defs>
      <g>
       <use style="stroke:#000000;stroke-width:0.5;" x="72.0" xlink:href="#m728421d6d4" y="319.68"/>
      </g>
     </g>
     <g id="line2d_39">
      <defs>
       <path d="
M0 0
L-4 0" id="mcb0005524f" style="stroke:#000000;stroke-width:0.5;"/>
      </defs>
      <g>
       <use style="stroke:#000000;stroke-width:0.5;" x="518.4" xlink:href="#mcb0005524f" y="319.68"/>
      </g>
     </g>
     <g id="text_9">
      <!-- 50 -->
      <g transform="translate(54.453125 322.99125)scale(0.12 -0.12)">
       <use xlink:href="#BitstreamVeraSans-Roman-35"/>
       <use x="63.623046875" xlink:href="#BitstreamVeraSans-Roman-30"/>
      </g>
     </g>
    </g>
    <g id="ytick_2">
     <g id="line2d_40">
      <g>
       <use style="stroke:#000000;stroke-width:0.5;" x="72.0" xlink:href="#m728421d6d4" y="233.28"/>
      </g>
     </g>
     <g id="line2d_41">
      <g>
       <use style="stroke:#000000;stroke-width:0.5;" x="518.4" xlink:href="#mcb0005524f" y="233.28"/>
      </g>
     </g>
     <g id="text_10">
      <!-- 55 -->
      <g transform="translate(54.704375 236.59125)scale(0.12 -0.12)">
       <use xlink:href="#BitstreamVeraSans-Roman-35"/>
       <use x="63.623046875" xlink:href="#BitstreamVeraSans-Roman-35"/>
      </g>
     </g>
    </g>
    <g id="ytick_3">
     <g id="line2d_42">
      <g>
       <use style="stroke:#000000;stroke-width:0.5;" x="72.0" xlink:href="#m728421d6d4" y="146.88"/>
      </g>
     </g>
     <g id="line2d_43">
      <g>
       <use style="stroke:#000000;stroke-width:0.5;" x="518.4" xlink:href="#mcb0005524f" y="146.88"/>
      </g>
     </g>
     <g id="text_11">
      <!-- 60 -->
      <defs>
       <path d="
M33.0156 40.375
Q26.375 40.375 22.4844 35.8281
Q18.6094 31.2969 18.6094 23.3906
Q18.6094 15.5312 22.4844 10.9531
Q26.375 6.39062 33.0156 6.39062
Q39.6562 6.39062 43.5312 10.9531
Q47.4062 15.5312 47.4062 23.3906
Q47.4062 31.2969 43.5312 35.8281
Q39.6562 40.375 33.0156 40.375
M52.5938 71.2969
L52.5938 62.3125
Q48.875 64.0625 45.0938 64.9844
Q41.3125 65.9219 37.5938 65.9219
Q27.8281 65.9219 22.6719 59.3281
Q17.5312 52.7344 16.7969 39.4062
Q19.6719 43.6562 24.0156 45.9219
Q28.375 48.1875 33.5938 48.1875
Q44.5781 48.1875 50.9531 41.5156
Q57.3281 34.8594 57.3281 23.3906
Q57.3281 12.1562 50.6875 5.35938
Q44.0469 -1.42188 33.0156 -1.42188
Q20.3594 -1.42188 13.6719 8.26562
Q6.98438 17.9688 6.98438 36.375
Q6.98438 53.6562 15.1875 63.9375
Q23.3906 74.2188 37.2031 74.2188
Q40.9219 74.2188 44.7031 73.4844
Q48.4844 72.75 52.5938 71.2969" id="BitstreamVeraSans-Roman-36"/>
      </defs>
      <g transform="translate(54.365 150.19125)scale(0.12 -0.12)">
       <use xlink:href="#BitstreamVeraSans-Roman-36"/>
       <use x="63.623046875" xlink:href="#BitstreamVeraSans-Roman-30"/>
      </g>
     </g>
    </g>
    <g id="ytick_4">
     <g id="line2d_44">
      <g>
       <use style="stroke:#000000;stroke-width:0.5;" x="72.0" xlink:href="#m728421d6d4" y="60.48"/>
      </g>
     </g>
     <g id="line2d_45">
      <g>
       <use style="stroke:#000000;stroke-width:0.5;" x="518.4" xlink:href="#mcb0005524f" y="60.48"/>
      </g>
     </g>
     <g id="text_12">
      <!-- 65 -->
      <g transform="translate(54.61625 63.79125)scale(0.12 -0.12)">
       <use xlink:href="#BitstreamVeraSans-Roman-36"/>
       <use x="63.623046875" xlink:href="#BitstreamVeraSans-Roman-35"/>
      </g>
     </g>
    </g>
    <g id="text_13">
     <!-- Line temperature (C) -->
     <defs>
      <path d="
M9.8125 72.9062
L19.6719 72.9062
L19.6719 8.29688
L55.1719 8.29688
L55.1719 0
L9.8125 0
z
" id="BitstreamVeraSans-Roman-4c"/>
      <path d="
M34.2812 27.4844
Q23.3906 27.4844 19.1875 25
Q14.9844 22.5156 14.9844 16.5
Q14.9844 11.7188 18.1406 8.90625
Q21.2969 6.10938 26.7031 6.10938
Q34.1875 6.10938 38.7031 11.4062
Q43.2188 16.7031 43.2188 25.4844
L43.2188 27.4844
z

M52.2031 31.2031
L52.2031 0
L43.2188 0
L43.2188 8.29688
Q40.1406 3.32812 35.5469 0.953125
Q30.9531 -1.42188 24.3125 -1.42188
Q15.9219 -1.42188 10.9531 3.29688
Q6 8.01562 6 15.9219
Q6 25.1406 12.1719 29.8281
Q18.3594 34.5156 30.6094 34.5156
L43.2188 34.5156
L43.2188 35.4062
Q43.2188 41.6094 39.1406 45
Q35.0625 48.3906 27.6875 48.3906
Q23 48.3906 18.5469 47.2656
Q14.1094 46.1406 10.0156 43.8906
L10.0156 52.2031
Q14.9375 54.1094 19.5781 55.0469
Q24.2188 56 28.6094 56
Q40.4844 56 46.3438 49.8438
Q52.2031 43.7031 52.2031 31.2031" id="BitstreamVeraSans-Roman-61"/>
      <path d="
M64.4062 67.2812
L64.4062 56.8906
Q59.4219 61.5312 53.7812 63.8125
Q48.1406 66.1094 41.7969 66.1094
Q29.2969 66.1094 22.6562 58.4688
Q16.0156 50.8281 16.0156 36.375
Q16.0156 21.9688 22.6562 14.3281
Q29.2969 6.6875 41.7969 6.6875
Q48.1406 6.6875 53.7812 8.98438
Q59.4219 11.2812 64.4062 15.9219
L64.4062 5.60938
Q59.2344 2.09375 53.4375 0.328125
Q47.6562 -1.42188 41.2188 -1.42188
Q24.6562 -1.42188 15.125 8.70312
Q5.60938 18.8438 5.60938 36.375
Q5.60938 53.9531 15.125 64.0781
Q24.6562 74.2188 41.2188 74.2188
Q47.75 74.2188 53.5312 72.4844
Q59.3281 70.75 64.4062 67.2812" id="BitstreamVeraSans-Roman-43"/>
      <path d="
M18.3125 70.2188
L18.3125 54.6875
L36.8125 54.6875
L36.8125 47.7031
L18.3125 47.7031
L18.3125 18.0156
Q18.3125 11.3281 20.1406 9.42188
Q21.9688 7.51562 27.5938 7.51562
L36.8125 7.51562
L36.8125 0
L27.5938 0
Q17.1875 0 13.2344 3.875
Q9.28125 7.76562 9.28125 18.0156
L9.28125 47.7031
L2.6875 47.7031
L2.6875 54.6875
L9.28125 54.6875
L9.28125 70.2188
z
" id="BitstreamVeraSans-Roman-74"/>
      <path d="
M8.5 21.5781
L8.5 54.6875
L17.4844 54.6875
L17.4844 21.9219
Q17.4844 14.1562 20.5 10.2656
Q23.5312 6.39062 29.5938 6.39062
Q36.8594 6.39062 41.0781 11.0312
Q45.3125 15.6719 45.3125 23.6875
L45.3125 54.6875
L54.2969 54.6875
L54.2969 0
L45.3125 0
L45.3125 8.40625
Q42.0469 3.42188 37.7188 1
Q33.4062 -1.42188 27.6875 -1.42188
Q18.2656 -1.42188 13.375 4.4375
Q8.5 10.2969 8.5 21.5781" id="BitstreamVeraSans-Roman-75"/>
      <path d="
M41.1094 46.2969
Q39.5938 47.1719 37.8125 47.5781
Q36.0312 48 33.8906 48
Q26.2656 48 22.1875 43.0469
Q18.1094 38.0938 18.1094 28.8125
L18.1094 0
L9.07812 0
L9.07812 54.6875
L18.1094 54.6875
L18.1094 46.1875
Q20.9531 51.1719 25.4844 53.5781
Q30.0312 56 36.5312 56
Q37.4531 56 38.5781 55.875
Q39.7031 55.7656 41.0625 55.5156
z
" id="BitstreamVeraSans-Roman-72"/>
      <path d="
M18.1094 8.20312
L18.1094 -20.7969
L9.07812 -20.7969
L9.07812 54.6875
L18.1094 54.6875
L18.1094 46.3906
Q20.9531 51.2656 25.2656 53.625
Q29.5938 56 35.5938 56
Q45.5625 56 51.7812 48.0938
Q58.0156 40.1875 58.0156 27.2969
Q58.0156 14.4062 51.7812 6.48438
Q45.5625 -1.42188 35.5938 -1.42188
Q29.5938 -1.42188 25.2656 0.953125
Q20.9531 3.32812 18.1094 8.20312
M48.6875 27.2969
Q48.6875 37.2031 44.6094 42.8438
Q40.5312 48.4844 33.4062 48.4844
Q26.2656 48.4844 22.1875 42.8438
Q18.1094 37.2031 18.1094 27.2969
Q18.1094 17.3906 22.1875 11.75
Q26.2656 6.10938 33.4062 6.10938
Q40.5312 6.10938 44.6094 11.75
Q48.6875 17.3906 48.6875 27.2969" id="BitstreamVeraSans-Roman-70"/>
     </defs>
     <g transform="translate(46.869375 278.385)rotate(-90.0)scale(0.12 -0.12)">
      <use xlink:href="#BitstreamVeraSans-Roman-4c"/>
      <use x="55.712890625" xlink:href="#BitstreamVeraSans-Roman-69"/>
      <use x="83.49609375" xlink:href="#BitstreamVeraSans-Roman-6e"/>
      <use x="146.875" xlink:href="#BitstreamVeraSans-Roman-65"/>
      <use x="208.3984375" xlink:href="#BitstreamVeraSans-Roman-20"/>
      <use x="240.185546875" xlink:href="#BitstreamVeraSans-Roman-74"/>
      <use x="279.39453125" xlink:href="#BitstreamVeraSans-Roman-65"/>
      <use x="340.91796875" xlink:href="#BitstreamVeraSans-Roman-6d"/>
      <use x="438.330078125" xlink:href="#BitstreamVeraSans-Roman-70"/>
      <use x="501.806640625" xlink:href="#BitstreamVeraSans-Roman-65"/>
      <use x="563.330078125" xlink:href="#BitstreamVeraSans-Roman-72"/>
      <use x="604.443359375" xlink:href="#BitstreamVeraSans-Roman-61"/>
      <use x="665.72265625" xlink:href="#BitstreamVeraSans-Roman-74"/>
      <use x="704.931640625" xlink:href="#BitstreamVeraSans-Roman-75"/>
      <use x="768.310546875" xlink:href="#BitstreamVeraSans-Roman-72"/>
      <use x="807.173828125" xlink:href="#BitstreamVeraSans-Roman-65"/>
      <use x="868.697265625" xlink:href="#BitstreamVeraSans-Roman-20"/>
      <use x="900.484375" xlink:href="#BitstreamVeraSans-Roman-28"/>
      <use x="939.498046875" xlink:href="#BitstreamVeraSans-Roman-43"/>
      <use x="1009.32226562" xlink:href="#BitstreamVeraSans-Roman-29"/>
     </g>
    </g>
   </g>
   <g id="text_14">
    <!-- Instanton candidate vs random vectors with same obj. value -->
    <defs>
     <path d="
M30.6094 48.3906
Q23.3906 48.3906 19.1875 42.75
Q14.9844 37.1094 14.9844 27.2969
Q14.9844 17.4844 19.1562 11.8438
Q23.3438 6.20312 30.6094 6.20312
Q37.7969 6.20312 41.9844 11.8594
Q46.1875 17.5312 46.1875 27.2969
Q46.1875 37.0156 41.9844 42.7031
Q37.7969 48.3906 30.6094 48.3906
M30.6094 56
Q42.3281 56 49.0156 48.375
Q55.7188 40.7656 55.7188 27.2969
Q55.7188 13.875 49.0156 6.21875
Q42.3281 -1.42188 30.6094 -1.42188
Q18.8438 -1.42188 12.1719 6.21875
Q5.51562 13.875 5.51562 27.2969
Q5.51562 40.7656 12.1719 48.375
Q18.8438 56 30.6094 56" id="BitstreamVeraSans-Roman-6f"/>
     <path d="
M9.42188 54.6875
L18.4062 54.6875
L18.4062 -0.984375
Q18.4062 -11.4219 14.4219 -16.1094
Q10.4531 -20.7969 1.60938 -20.7969
L-1.8125 -20.7969
L-1.8125 -13.1875
L0.59375 -13.1875
Q5.71875 -13.1875 7.5625 -10.8125
Q9.42188 -8.45312 9.42188 -0.984375
z

M9.42188 75.9844
L18.4062 75.9844
L18.4062 64.5938
L9.42188 64.5938
z
" id="BitstreamVeraSans-Roman-6a"/>
     <path d="
M9.42188 75.9844
L18.4062 75.9844
L18.4062 0
L9.42188 0
z
" id="BitstreamVeraSans-Roman-6c"/>
     <path d="
M10.6875 12.4062
L21 12.4062
L21 0
L10.6875 0
z
" id="BitstreamVeraSans-Roman-2e"/>
     <path d="
M9.8125 72.9062
L19.6719 72.9062
L19.6719 0
L9.8125 0
z
" id="BitstreamVeraSans-Roman-49"/>
     <path d="
M4.20312 54.6875
L13.1875 54.6875
L24.4219 12.0156
L35.5938 54.6875
L46.1875 54.6875
L57.4219 12.0156
L68.6094 54.6875
L77.5938 54.6875
L63.2812 0
L52.6875 0
L40.9219 44.8281
L29.1094 0
L18.5 0
z
" id="BitstreamVeraSans-Roman-77"/>
     <path d="
M2.98438 54.6875
L12.5 54.6875
L29.5938 8.79688
L46.6875 54.6875
L56.2031 54.6875
L35.6875 0
L23.4844 0
z
" id="BitstreamVeraSans-Roman-76"/>
     <path d="
M45.4062 46.3906
L45.4062 75.9844
L54.3906 75.9844
L54.3906 0
L45.4062 0
L45.4062 8.20312
Q42.5781 3.32812 38.25 0.953125
Q33.9375 -1.42188 27.875 -1.42188
Q17.9688 -1.42188 11.7344 6.48438
Q5.51562 14.4062 5.51562 27.2969
Q5.51562 40.1875 11.7344 48.0938
Q17.9688 56 27.875 56
Q33.9375 56 38.25 53.625
Q42.5781 51.2656 45.4062 46.3906
M14.7969 27.2969
Q14.7969 17.3906 18.875 11.75
Q22.9531 6.10938 30.0781 6.10938
Q37.2031 6.10938 41.2969 11.75
Q45.4062 17.3906 45.4062 27.2969
Q45.4062 37.2031 41.2969 42.8438
Q37.2031 48.4844 30.0781 48.4844
Q22.9531 48.4844 18.875 42.8438
Q14.7969 37.2031 14.7969 27.2969" id="BitstreamVeraSans-Roman-64"/>
     <path d="
M48.6875 27.2969
Q48.6875 37.2031 44.6094 42.8438
Q40.5312 48.4844 33.4062 48.4844
Q26.2656 48.4844 22.1875 42.8438
Q18.1094 37.2031 18.1094 27.2969
Q18.1094 17.3906 22.1875 11.75
Q26.2656 6.10938 33.4062 6.10938
Q40.5312 6.10938 44.6094 11.75
Q48.6875 17.3906 48.6875 27.2969
M18.1094 46.3906
Q20.9531 51.2656 25.2656 53.625
Q29.5938 56 35.5938 56
Q45.5625 56 51.7812 48.0938
Q58.0156 40.1875 58.0156 27.2969
Q58.0156 14.4062 51.7812 6.48438
Q45.5625 -1.42188 35.5938 -1.42188
Q29.5938 -1.42188 25.2656 0.953125
Q20.9531 3.32812 18.1094 8.20312
L18.1094 0
L9.07812 0
L9.07812 75.9844
L18.1094 75.9844
z
" id="BitstreamVeraSans-Roman-62"/>
     <path d="
M44.2812 53.0781
L44.2812 44.5781
Q40.4844 46.5312 36.375 47.5
Q32.2812 48.4844 27.875 48.4844
Q21.1875 48.4844 17.8438 46.4375
Q14.5 44.3906 14.5 40.2812
Q14.5 37.1562 16.8906 35.375
Q19.2812 33.5938 26.5156 31.9844
L29.5938 31.2969
Q39.1562 29.25 43.1875 25.5156
Q47.2188 21.7812 47.2188 15.0938
Q47.2188 7.46875 41.1875 3.01562
Q35.1562 -1.42188 24.6094 -1.42188
Q20.2188 -1.42188 15.4531 -0.5625
Q10.6875 0.296875 5.42188 2
L5.42188 11.2812
Q10.4062 8.6875 15.2344 7.39062
Q20.0625 6.10938 24.8125 6.10938
Q31.1562 6.10938 34.5625 8.28125
Q37.9844 10.4531 37.9844 14.4062
Q37.9844 18.0625 35.5156 20.0156
Q33.0625 21.9688 24.7031 23.7812
L21.5781 24.5156
Q13.2344 26.2656 9.51562 29.9062
Q5.8125 33.5469 5.8125 39.8906
Q5.8125 47.6094 11.2812 51.7969
Q16.75 56 26.8125 56
Q31.7812 56 36.1719 55.2656
Q40.5781 54.5469 44.2812 53.0781" id="BitstreamVeraSans-Roman-73"/>
     <path d="
M48.7812 52.5938
L48.7812 44.1875
Q44.9688 46.2969 41.1406 47.3438
Q37.3125 48.3906 33.4062 48.3906
Q24.6562 48.3906 19.8125 42.8438
Q14.9844 37.3125 14.9844 27.2969
Q14.9844 17.2812 19.8125 11.7344
Q24.6562 6.20312 33.4062 6.20312
Q37.3125 6.20312 41.1406 7.25
Q44.9688 8.29688 48.7812 10.4062
L48.7812 2.09375
Q45.0156 0.34375 40.9844 -0.53125
Q36.9688 -1.42188 32.4219 -1.42188
Q20.0625 -1.42188 12.7812 6.34375
Q5.51562 14.1094 5.51562 27.2969
Q5.51562 40.6719 12.8594 48.3281
Q20.2188 56 33.0156 56
Q37.1562 56 41.1094 55.1406
Q45.0625 54.2969 48.7812 52.5938" id="BitstreamVeraSans-Roman-63"/>
     <path d="
M54.8906 33.0156
L54.8906 0
L45.9062 0
L45.9062 32.7188
Q45.9062 40.4844 42.875 44.3281
Q39.8438 48.1875 33.7969 48.1875
Q26.5156 48.1875 22.3125 43.5469
Q18.1094 38.9219 18.1094 30.9062
L18.1094 0
L9.07812 0
L9.07812 75.9844
L18.1094 75.9844
L18.1094 46.1875
Q21.3438 51.125 25.7031 53.5625
Q30.0781 56 35.7969 56
Q45.2188 56 50.0469 50.1719
Q54.8906 44.3438 54.8906 33.0156" id="BitstreamVeraSans-Roman-68"/>
    </defs>
    <g transform="translate(77.1705 38.2)scale(0.144 -0.144)">
     <use xlink:href="#BitstreamVeraSans-Roman-49"/>
     <use x="29.4921875" xlink:href="#BitstreamVeraSans-Roman-6e"/>
     <use x="92.87109375" xlink:href="#BitstreamVeraSans-Roman-73"/>
     <use x="144.970703125" xlink:href="#BitstreamVeraSans-Roman-74"/>
     <use x="184.1796875" xlink:href="#BitstreamVeraSans-Roman-61"/>
     <use x="245.458984375" xlink:href="#BitstreamVeraSans-Roman-6e"/>
     <use x="308.837890625" xlink:href="#BitstreamVeraSans-Roman-74"/>
     <use x="348.046875" xlink:href="#BitstreamVeraSans-Roman-6f"/>
     <use x="409.228515625" xlink:href="#BitstreamVeraSans-Roman-6e"/>
     <use x="472.607421875" xlink:href="#BitstreamVeraSans-Roman-20"/>
     <use x="504.39453125" xlink:href="#BitstreamVeraSans-Roman-63"/>
     <use x="559.375" xlink:href="#BitstreamVeraSans-Roman-61"/>
     <use x="620.654296875" xlink:href="#BitstreamVeraSans-Roman-6e"/>
     <use x="684.033203125" xlink:href="#BitstreamVeraSans-Roman-64"/>
     <use x="747.509765625" xlink:href="#BitstreamVeraSans-Roman-69"/>
     <use x="775.29296875" xlink:href="#BitstreamVeraSans-Roman-64"/>
     <use x="838.76953125" xlink:href="#BitstreamVeraSans-Roman-61"/>
     <use x="900.048828125" xlink:href="#BitstreamVeraSans-Roman-74"/>
     <use x="939.2578125" xlink:href="#BitstreamVeraSans-Roman-65"/>
     <use x="1000.78125" xlink:href="#BitstreamVeraSans-Roman-20"/>
     <use x="1032.56835938" xlink:href="#BitstreamVeraSans-Roman-76"/>
     <use x="1091.74804688" xlink:href="#BitstreamVeraSans-Roman-73"/>
     <use x="1143.84765625" xlink:href="#BitstreamVeraSans-Roman-20"/>
     <use x="1175.63476562" xlink:href="#BitstreamVeraSans-Roman-72"/>
     <use x="1216.74804688" xlink:href="#BitstreamVeraSans-Roman-61"/>
     <use x="1278.02734375" xlink:href="#BitstreamVeraSans-Roman-6e"/>
     <use x="1341.40625" xlink:href="#BitstreamVeraSans-Roman-64"/>
     <use x="1404.8828125" xlink:href="#BitstreamVeraSans-Roman-6f"/>
     <use x="1466.06445312" xlink:href="#BitstreamVeraSans-Roman-6d"/>
     <use x="1563.4765625" xlink:href="#BitstreamVeraSans-Roman-20"/>
     <use x="1595.26367188" xlink:href="#BitstreamVeraSans-Roman-76"/>
     <use x="1654.44335938" xlink:href="#BitstreamVeraSans-Roman-65"/>
     <use x="1715.96679688" xlink:href="#BitstreamVeraSans-Roman-63"/>
     <use x="1770.94726562" xlink:href="#BitstreamVeraSans-Roman-74"/>
     <use x="1810.15625" xlink:href="#BitstreamVeraSans-Roman-6f"/>
     <use x="1871.33789062" xlink:href="#BitstreamVeraSans-Roman-72"/>
     <use x="1912.45117188" xlink:href="#BitstreamVeraSans-Roman-73"/>
     <use x="1964.55078125" xlink:href="#BitstreamVeraSans-Roman-20"/>
     <use x="1996.33789062" xlink:href="#BitstreamVeraSans-Roman-77"/>
     <use x="2078.125" xlink:href="#BitstreamVeraSans-Roman-69"/>
     <use x="2105.90820312" xlink:href="#BitstreamVeraSans-Roman-74"/>
     <use x="2145.1171875" xlink:href="#BitstreamVeraSans-Roman-68"/>
     <use x="2208.49609375" xlink:href="#BitstreamVeraSans-Roman-20"/>
     <use x="2240.28320312" xlink:href="#BitstreamVeraSans-Roman-73"/>
     <use x="2292.3828125" xlink:href="#BitstreamVeraSans-Roman-61"/>
     <use x="2353.66210938" xlink:href="#BitstreamVeraSans-Roman-6d"/>
     <use x="2451.07421875" xlink:href="#BitstreamVeraSans-Roman-65"/>
     <use x="2512.59765625" xlink:href="#BitstreamVeraSans-Roman-20"/>
     <use x="2544.38476562" xlink:href="#BitstreamVeraSans-Roman-6f"/>
     <use x="2605.56640625" xlink:href="#BitstreamVeraSans-Roman-62"/>
     <use x="2669.04296875" xlink:href="#BitstreamVeraSans-Roman-6a"/>
     <use x="2696.82617188" xlink:href="#BitstreamVeraSans-Roman-2e"/>
     <use x="2728.61328125" xlink:href="#BitstreamVeraSans-Roman-20"/>
     <use x="2760.40039062" xlink:href="#BitstreamVeraSans-Roman-76"/>
     <use x="2819.58007812" xlink:href="#BitstreamVeraSans-Roman-61"/>
     <use x="2880.859375" xlink:href="#BitstreamVeraSans-Roman-6c"/>
     <use x="2908.64257812" xlink:href="#BitstreamVeraSans-Roman-75"/>
     <use x="2972.02148438" xlink:href="#BitstreamVeraSans-Roman-65"/>
    </g>
   </g>
   <g id="legend_1">
    <g id="patch_7">
     <path d="
M228.148 383.3
L512.9 383.3
L512.9 347.708
L228.148 347.708
z
" style="fill:#ffffff;stroke:#000000;stroke-linejoin:miter;"/>
    </g>
    <g id="line2d_46">
     <path d="
M235.848 356.616
L251.248 356.616" style="fill:none;opacity:0.7;stroke:#0000ff;stroke-linecap:square;"/>
    </g>
    <g id="line2d_47"/>
    <g id="text_15">
     <!-- Instanton: line 14-16 -->
     <defs>
      <path d="
M11.7188 12.4062
L22.0156 12.4062
L22.0156 0
L11.7188 0
z

M11.7188 51.7031
L22.0156 51.7031
L22.0156 39.3125
L11.7188 39.3125
z
" id="BitstreamVeraSans-Roman-3a"/>
      <path d="
M4.89062 31.3906
L31.2031 31.3906
L31.2031 23.3906
L4.89062 23.3906
z
" id="BitstreamVeraSans-Roman-2d"/>
      <path d="
M37.7969 64.3125
L12.8906 25.3906
L37.7969 25.3906
z

M35.2031 72.9062
L47.6094 72.9062
L47.6094 25.3906
L58.0156 25.3906
L58.0156 17.1875
L47.6094 17.1875
L47.6094 0
L37.7969 0
L37.7969 17.1875
L4.89062 17.1875
L4.89062 26.7031
z
" id="BitstreamVeraSans-Roman-34"/>
     </defs>
     <g transform="translate(263.3478125 360.46640625)scale(0.11 -0.11)">
      <use xlink:href="#BitstreamVeraSans-Roman-49"/>
      <use x="29.4921875" xlink:href="#BitstreamVeraSans-Roman-6e"/>
      <use x="92.87109375" xlink:href="#BitstreamVeraSans-Roman-73"/>
      <use x="144.970703125" xlink:href="#BitstreamVeraSans-Roman-74"/>
      <use x="184.1796875" xlink:href="#BitstreamVeraSans-Roman-61"/>
      <use x="245.458984375" xlink:href="#BitstreamVeraSans-Roman-6e"/>
      <use x="308.837890625" xlink:href="#BitstreamVeraSans-Roman-74"/>
      <use x="348.046875" xlink:href="#BitstreamVeraSans-Roman-6f"/>
      <use x="409.228515625" xlink:href="#BitstreamVeraSans-Roman-6e"/>
      <use x="472.607421875" xlink:href="#BitstreamVeraSans-Roman-3a"/>
      <use x="506.298828125" xlink:href="#BitstreamVeraSans-Roman-20"/>
      <use x="538.0859375" xlink:href="#BitstreamVeraSans-Roman-6c"/>
      <use x="565.869140625" xlink:href="#BitstreamVeraSans-Roman-69"/>
      <use x="593.65234375" xlink:href="#BitstreamVeraSans-Roman-6e"/>
      <use x="657.03125" xlink:href="#BitstreamVeraSans-Roman-65"/>
      <use x="718.5546875" xlink:href="#BitstreamVeraSans-Roman-20"/>
      <use x="750.341796875" xlink:href="#BitstreamVeraSans-Roman-31"/>
      <use x="813.96484375" xlink:href="#BitstreamVeraSans-Roman-34"/>
      <use x="877.587890625" xlink:href="#BitstreamVeraSans-Roman-2d"/>
      <use x="913.671875" xlink:href="#BitstreamVeraSans-Roman-31"/>
      <use x="977.294921875" xlink:href="#BitstreamVeraSans-Roman-36"/>
     </g>
    </g>
    <g id="line2d_48">
     <path d="
M235.848 372.762
L251.248 372.762" style="fill:none;opacity:0.1;stroke:#000000;stroke-dasharray:6.000000,6.000000;stroke-dashoffset:0.0;"/>
    </g>
    <g id="line2d_49"/>
    <g id="text_16">
     <!-- Perturbed vectors with same objective value -->
     <defs>
      <path d="
M19.6719 64.7969
L19.6719 37.4062
L32.0781 37.4062
Q38.9688 37.4062 42.7188 40.9688
Q46.4844 44.5312 46.4844 51.125
Q46.4844 57.6719 42.7188 61.2344
Q38.9688 64.7969 32.0781 64.7969
z

M9.8125 72.9062
L32.0781 72.9062
Q44.3438 72.9062 50.6094 67.3594
Q56.8906 61.8125 56.8906 51.125
Q56.8906 40.3281 50.6094 34.8125
Q44.3438 29.2969 32.0781 29.2969
L19.6719 29.2969
L19.6719 0
L9.8125 0
z
" id="BitstreamVeraSans-Roman-50"/>
     </defs>
     <g transform="translate(263.3478125 376.61234375)scale(0.11 -0.11)">
      <use xlink:href="#BitstreamVeraSans-Roman-50"/>
      <use x="56.677734375" xlink:href="#BitstreamVeraSans-Roman-65"/>
      <use x="118.201171875" xlink:href="#BitstreamVeraSans-Roman-72"/>
      <use x="159.314453125" xlink:href="#BitstreamVeraSans-Roman-74"/>
      <use x="198.5234375" xlink:href="#BitstreamVeraSans-Roman-75"/>
      <use x="261.90234375" xlink:href="#BitstreamVeraSans-Roman-72"/>
      <use x="303.015625" xlink:href="#BitstreamVeraSans-Roman-62"/>
      <use x="366.4921875" xlink:href="#BitstreamVeraSans-Roman-65"/>
      <use x="428.015625" xlink:href="#BitstreamVeraSans-Roman-64"/>
      <use x="491.4921875" xlink:href="#BitstreamVeraSans-Roman-20"/>
      <use x="523.279296875" xlink:href="#BitstreamVeraSans-Roman-76"/>
      <use x="582.458984375" xlink:href="#BitstreamVeraSans-Roman-65"/>
      <use x="643.982421875" xlink:href="#BitstreamVeraSans-Roman-63"/>
      <use x="698.962890625" xlink:href="#BitstreamVeraSans-Roman-74"/>
      <use x="738.171875" xlink:href="#BitstreamVeraSans-Roman-6f"/>
      <use x="799.353515625" xlink:href="#BitstreamVeraSans-Roman-72"/>
      <use x="840.466796875" xlink:href="#BitstreamVeraSans-Roman-73"/>
      <use x="892.56640625" xlink:href="#BitstreamVeraSans-Roman-20"/>
      <use x="924.353515625" xlink:href="#BitstreamVeraSans-Roman-77"/>
      <use x="1006.140625" xlink:href="#BitstreamVeraSans-Roman-69"/>
      <use x="1033.92382812" xlink:href="#BitstreamVeraSans-Roman-74"/>
      <use x="1073.1328125" xlink:href="#BitstreamVeraSans-Roman-68"/>
      <use x="1136.51171875" xlink:href="#BitstreamVeraSans-Roman-20"/>
      <use x="1168.29882812" xlink:href="#BitstreamVeraSans-Roman-73"/>
      <use x="1220.3984375" xlink:href="#BitstreamVeraSans-Roman-61"/>
      <use x="1281.67773438" xlink:href="#BitstreamVeraSans-Roman-6d"/>
      <use x="1379.08984375" xlink:href="#BitstreamVeraSans-Roman-65"/>
      <use x="1440.61328125" xlink:href="#BitstreamVeraSans-Roman-20"/>
      <use x="1472.40039062" xlink:href="#BitstreamVeraSans-Roman-6f"/>
      <use x="1533.58203125" xlink:href="#BitstreamVeraSans-Roman-62"/>
      <use x="1597.05859375" xlink:href="#BitstreamVeraSans-Roman-6a"/>
      <use x="1624.84179688" xlink:href="#BitstreamVeraSans-Roman-65"/>
      <use x="1686.36523438" xlink:href="#BitstreamVeraSans-Roman-63"/>
      <use x="1741.34570312" xlink:href="#BitstreamVeraSans-Roman-74"/>
      <use x="1780.5546875" xlink:href="#BitstreamVeraSans-Roman-69"/>
      <use x="1808.33789062" xlink:href="#BitstreamVeraSans-Roman-76"/>
      <use x="1867.51757812" xlink:href="#BitstreamVeraSans-Roman-65"/>
      <use x="1929.04101562" xlink:href="#BitstreamVeraSans-Roman-20"/>
      <use x="1960.828125" xlink:href="#BitstreamVeraSans-Roman-76"/>
      <use x="2020.0078125" xlink:href="#BitstreamVeraSans-Roman-61"/>
      <use x="2081.28710938" xlink:href="#BitstreamVeraSans-Roman-6c"/>
      <use x="2109.0703125" xlink:href="#BitstreamVeraSans-Roman-75"/>
      <use x="2172.44921875" xlink:href="#BitstreamVeraSans-Roman-65"/>
     </g>
    </g>
   </g>
  </g>
 </g>
 <defs>
  <clipPath id="p7ff5b81e1d">
   <rect height="345.6" width="446.4" x="72.0" y="43.2"/>
  </clipPath>
 </defs>
</svg>
